<?xml version="1.0" encoding="UTF-8"?>
<svg version="1.1" xmlns="http://www.w3.org/2000/svg" width="100" height="100">
<path d="M0 0 C33 0 66 0 100 0 C100 33 100 66 100 100 C67 100 34 100 0 100 C0 67 0 34 0 0 Z " fill="#6D8AB3" transform="translate(0,0)"/>
<path d="M0 0 C1.21913086 -0.0309375 1.21913086 -0.0309375 2.46289062 -0.0625 C13.71677799 -0.13412379 22.17583049 4.26875718 30.5 11.625 C38.6265387 20.8497196 44.27142979 30.68241706 44.0859375 43.27734375 C42.8461193 56.7559388 36.72194965 67.59482089 27.48828125 77.203125 C25.8125 78.25 25.8125 78.25 23.83984375 78.23046875 C20.97025857 76.84267322 19.82772432 74.94147724 18.0625 72.3125 C17.44890625 71.41660156 16.8353125 70.52070312 16.203125 69.59765625 C14.8125 67.25 14.8125 67.25 14.8125 65.25 C14.1525 65.25 13.4925 65.25 12.8125 65.25 C12.544375 66.136875 12.27625 67.02375 12 67.9375 C10.89539181 71.01877548 9.58400856 73.51221405 7.8125 76.25 C3.69485879 74.87745293 2.37764237 72.05724955 0.125 68.5625 C-0.31054199 67.89855225 -0.74608398 67.23460449 -1.19482422 66.55053711 C-5.47893385 59.94645336 -9.38649935 53.14064084 -13.1875 46.25 C-13.70135254 47.16495239 -13.70135254 47.16495239 -14.22558594 48.09838867 C-15.79161853 50.88071362 -17.36448526 53.65911698 -18.9375 56.4375 C-19.47632812 57.39720703 -20.01515625 58.35691406 -20.5703125 59.34570312 C-23.16856195 63.92432563 -25.68702989 68.28223412 -29.1875 72.25 C-31.77631191 71.88176382 -32.94362207 71.51216878 -34.75 69.5703125 C-42.23579594 58.13820022 -45.15504336 47.47191168 -42.52734375 33.8203125 C-39.22583544 21.67190531 -32.22030246 12.74401403 -22.1875 5.25 C-14.84904305 1.09918529 -8.30629242 0.05147199 0 0 Z " fill="#FCFDFD" transform="translate(49.1875,6.75)"/>
<path d="M0 0 C33 0 66 0 100 0 C100 33 100 66 100 100 C67 100 34 100 0 100 C0 86.14 0 72.28 0 58 C1.86272215 60.79408323 2.71616459 62.91111575 3.75 66.0625 C8.96728482 80.58266399 17.25865591 88.3655394 31 95 C35.32010518 96.86902754 39.32053235 97.66519616 44 98 C44.88816406 98.06574219 45.77632812 98.13148437 46.69140625 98.19921875 C59.60691779 98.69795355 70.77419218 94.80697889 81 87 C81.98419922 86.24976562 81.98419922 86.24976562 82.98828125 85.484375 C90.55189671 78.84315167 96.2107226 66.77558093 97.21704102 56.86181641 C98.04055319 41.07135093 95.56396176 29.27283793 85 17 C74.98237479 6.14757268 62.10485938 2.14024976 47.75 1.5625 C35.08095216 1.7796107 24.36715533 6.56194463 15 15 C6.78973358 23.63090626 2.49540963 33.2599184 1 45 C0.67 45 0.34 45 0 45 C0 30.15 0 15.3 0 0 Z " fill="#FAFCFD" transform="translate(0,0)"/>
<path d="M0 0 C11.73587768 -1.49027018 24.28983442 2.90431035 33.59765625 9.97265625 C43.2595732 18.2355626 50.90225192 28.19787064 52.22314453 41.19580078 C53.24083632 56.68449549 50.29158582 69.99291367 40.1875 82.1875 C33.16128798 89.66701602 23.38148059 96.30412062 12.8828125 97.17578125 C11.25418354 97.18559227 9.62535084 97.1037458 8 97 C8 96.67 8 96.34 8 96 C8.62648438 95.87882812 9.25296875 95.75765625 9.8984375 95.6328125 C10.71570312 95.46523437 11.53296875 95.29765625 12.375 95.125 C13.18710937 94.96257812 13.99921875 94.80015625 14.8359375 94.6328125 C17.18673923 94.13341068 17.18673923 94.13341068 19 92 C19.309375 91.319375 19.61875 90.63875 19.9375 89.9375 C21 88 21 88 24 87 C22.35 86.34 20.7 85.68 19 85 C19 84.34 19 83.68 19 83 C18.21625 83.165 17.4325 83.33 16.625 83.5 C14 84 14 84 12 84 C12 84.66 12 85.32 12 86 C9.03 86.495 9.03 86.495 6 87 C5.505 84.525 5.505 84.525 5 82 C6.485 81.01 6.485 81.01 8 80 C8.99 80.66 9.98 81.32 11 82 C11.268125 81.29875 11.53625 80.5975 11.8125 79.875 C13.0681449 76.8350176 14.50235123 73.9272226 16 71 C16.66 71 17.32 71 18 71 C19.84731785 73.76187669 21.48197644 76.62199902 23.1484375 79.49609375 C24.7612262 82.067954 24.7612262 82.067954 27.015625 83.0234375 C29.05783136 83.17280271 29.05783136 83.17280271 30.7109375 81.91796875 C40.02809951 72.22899511 45.94372984 60.40381845 46.4375 46.75 C45.90660079 36.26902201 41.42505389 27.12374661 34.625 19.25 C22.73697207 9.06026177 12.52605615 5.8993752 -3 5 C-1.74609375 2.53125 -1.74609375 2.53125 0 0 Z " fill="#3D426C" transform="translate(46,1)"/>
<path d="M0 0 C-0.66 1.32 -1.32 2.64 -2 4 C1.96 4.33 5.92 4.66 10 5 C10 5.33 10 5.66 10 6 C8.97261719 6.02578125 7.94523437 6.0515625 6.88671875 6.078125 C-7.25689077 6.58820556 -17.31154211 9.60841425 -27.71484375 19.65625 C-36.48964978 29.1232163 -39.57263819 40.69115744 -39.3828125 53.328125 C-38.47365225 62.04864173 -34.80596429 70.43009304 -29 77 C-28.01 77 -27.02 77 -26 77 C-23.78831775 74.05763218 -23.78831775 74.05763218 -22 71 C-21.34 71.33 -20.68 71.66 -20 72 C-20.625 74.8125 -20.625 74.8125 -22 78 C-26.8 81 -26.8 81 -30 81 C-30 81.99 -30 82.98 -30 84 C-28.02 84.33 -26.04 84.66 -24 85 C-23.67 85.99 -23.34 86.98 -23 88 C-22.01 88.309375 -21.02 88.61875 -20 88.9375 C-19.01 89.288125 -18.02 89.63875 -17 90 C-16.125 92.125 -16.125 92.125 -16 94 C-27.7084103 89.70830512 -36.02630636 81.55761336 -41.3125 70.4375 C-46.97388799 57.25778877 -48.08408768 43.63247234 -42.84765625 30 C-36.52884969 16.27716249 -26.82235049 7.40812639 -12.8125 2.125 C-8.34036758 0.5288854 -4.75278054 -0.24521174 0 0 Z " fill="#A4CAE6" transform="translate(46,1)"/>
<path d="M0 0 C0.66 0 1.32 0 2 0 C3.84731785 2.76187669 5.48197644 5.62199902 7.1484375 8.49609375 C8.75541582 11.07928704 8.75541582 11.07928704 11.0390625 11.97265625 C13.32890726 12.18968498 13.32890726 12.18968498 16 10 C17.5625 11.25 17.5625 11.25 19 13 C18.87109375 14.91796875 18.87109375 14.91796875 18 17 C10.59740552 23.00726417 1.51881038 26.60758364 -8 26 C-8 25.67 -8 25.34 -8 25 C-7.37351563 24.87882812 -6.74703125 24.75765625 -6.1015625 24.6328125 C-5.28429688 24.46523437 -4.46703125 24.29765625 -3.625 24.125 C-2.40683594 23.88136719 -2.40683594 23.88136719 -1.1640625 23.6328125 C1.18673923 23.13341068 1.18673923 23.13341068 3 21 C3.309375 20.319375 3.61875 19.63875 3.9375 18.9375 C5 17 5 17 8 16 C6.35 15.34 4.7 14.68 3 14 C3 13.34 3 12.68 3 12 C2.21625 12.165 1.4325 12.33 0.625 12.5 C-2 13 -2 13 -4 13 C-4 13.66 -4 14.32 -4 15 C-5.98 15.33 -7.96 15.66 -10 16 C-10.33 14.35 -10.66 12.7 -11 11 C-10.01 10.34 -9.02 9.68 -8 9 C-7.01 9.66 -6.02 10.32 -5 11 C-4.731875 10.29875 -4.46375 9.5975 -4.1875 8.875 C-2.9318551 5.8350176 -1.49764877 2.9272226 0 0 Z " fill="#4B5882" transform="translate(62,72)"/>
<path d="M0 0 C10.77641692 -1.36843389 21.85902667 2.41193329 31 8 C33.625 10.1875 33.625 10.1875 35 12 C35 12.66 35 13.32 35 14 C34.34 14 33.68 14 33 14 C32.67 14.99 32.34 15.98 32 17 C31.23816406 16.40251953 31.23816406 16.40251953 30.4609375 15.79296875 C19.76314324 7.55927317 10.25700743 5.76793641 -3 5 C-1.74609375 2.53125 -1.74609375 2.53125 0 0 Z " fill="#556589" transform="translate(46,1)"/>
<path d="M0 0 C5.74370701 0.83149433 8.69195367 5.61324291 12 10 C13.96899297 13.21232421 15.8154234 16.41390473 17 20 C16.67 20.99 16.34 21.98 16 23 C15.34 23 14.68 23 14 23 C13.67 23.99 13.34 24.98 13 26 C12.72800781 25.45085938 12.45601562 24.90171875 12.17578125 24.3359375 C7.89868767 15.49248112 7.89868767 15.49248112 2.125 7.625 C0 5 0 5 -0.3125 2.125 C-0.209375 1.42375 -0.10625 0.7225 0 0 Z " fill="#40456F" transform="translate(79,13)"/>
<path d="M0 0 C-0.66 1.32 -1.32 2.64 -2 4 C1.96 4.33 5.92 4.66 10 5 C10 5.33 10 5.66 10 6 C8.97261719 6.02578125 7.94523437 6.0515625 6.88671875 6.078125 C-0.86288696 6.36306454 -7.52626054 7.00488023 -14.765625 10.0625 C-16.83654701 10.93141833 -18.81100788 11.51802008 -21 12 C-21 11.34 -21 10.68 -21 10 C-21.66 9.67 -22.32 9.34 -23 9 C-23 8.34 -23 7.68 -23 7 C-15.46019491 3.0252939 -8.74443394 -0.42655775 0 0 Z " fill="#849DBD" transform="translate(46,1)"/>
<path d="M0 0 C0.72960938 0.23847656 1.45921875 0.47695312 2.2109375 0.72265625 C1.86880821 3.70479816 1.57208776 5.33258091 -0.49609375 7.56640625 C-1.19089844 8.11296875 -1.88570312 8.65953125 -2.6015625 9.22265625 C-5.78662725 11.82758421 -8.22659614 14.49584676 -10.7890625 17.72265625 C-11.7790625 18.05265625 -12.7690625 18.38265625 -13.7890625 18.72265625 C-14.77663361 15.67016372 -14.87548391 14.00043937 -13.9140625 10.91015625 C-10.81646288 6.26375683 -6.08361902 -0.60495371 0 0 Z " fill="#98BCDA" transform="translate(23.7890625,9.27734375)"/>
<path d="M0 0 C0.66 0.33 1.32 0.66 2 1 C1.375 3.8125 1.375 3.8125 0 7 C-4.8 10 -4.8 10 -8 10 C-8 10.99 -8 11.98 -8 13 C-5.03 13.495 -5.03 13.495 -2 14 C-1.67 14.99 -1.34 15.98 -1 17 C-0.01 17.309375 0.98 17.61875 2 17.9375 C2.99 18.288125 3.98 18.63875 5 19 C5.875 21.125 5.875 21.125 6 23 C2.24105631 21.64166972 -0.80345165 19.93202341 -4.0625 17.625 C-4.89910156 17.03976563 -5.73570313 16.45453125 -6.59765625 15.8515625 C-12.7425833 11.11547239 -12.7425833 11.11547239 -13.75 6.75 C-13.8325 5.8425 -13.915 4.935 -14 4 C-10.62294375 4.53725895 -7.303314 5.11064623 -4 6 C-2.68 4.02 -1.36 2.04 0 0 Z " fill="#96B8D7" transform="translate(24,72)"/>
<path d="M0 0 C0.66 0 1.32 0 2 0 C2.99 1.98 3.98 3.96 5 6 C4.01 6.495 4.01 6.495 3 7 C2.67 7.99 2.34 8.98 2 10 C1.34 10 0.68 10 0 10 C-0.33 10.99 -0.66 11.98 -1 13 C-1.99 13 -2.98 13 -4 13 C-4 13.66 -4 14.32 -4 15 C-5.98 15.33 -7.96 15.66 -10 16 C-10.33 14.35 -10.66 12.7 -11 11 C-10.01 10.34 -9.02 9.68 -8 9 C-7.01 9.66 -6.02 10.32 -5 11 C-4.731875 10.29875 -4.46375 9.5975 -4.1875 8.875 C-2.9318551 5.8350176 -1.49764877 2.9272226 0 0 Z " fill="#5D7095" transform="translate(62,72)"/>
<path d="M0 0 C0.71027344 0.03996094 1.42054687 0.07992187 2.15234375 0.12109375 C2.93609375 0.16363281 3.71984375 0.20617188 4.52734375 0.25 C8.77305176 0.76129715 12.9277097 1.58540166 17.08984375 2.55859375 C17.08984375 2.88859375 17.08984375 3.21859375 17.08984375 3.55859375 C14.77984375 3.55859375 12.46984375 3.55859375 10.08984375 3.55859375 C10.08984375 3.88859375 10.08984375 4.21859375 10.08984375 4.55859375 C13.05984375 5.05359375 13.05984375 5.05359375 16.08984375 5.55859375 C14.08984375 7.55859375 14.08984375 7.55859375 12.11865234 7.60205078 C11.33312988 7.50778809 10.54760742 7.41352539 9.73828125 7.31640625 C8.8875 7.21972656 8.03671875 7.12304688 7.16015625 7.0234375 C6.27070312 6.91128906 5.38125 6.79914062 4.46484375 6.68359375 C3.56765625 6.57917969 2.67046875 6.47476562 1.74609375 6.3671875 C-0.47400055 6.10738923 -2.69239159 5.83747434 -4.91015625 5.55859375 C-2.47341784 0.72331033 -2.47341784 0.72331033 0 0 Z " fill="#657A9C" transform="translate(47.91015625,0.44140625)"/>
<path d="M0 0 C2.64107354 2.46741391 3.79641403 4.57440916 5 8 C4.34 8 3.68 8 3 8 C2.67 7.34 2.34 6.68 2 6 C0.86527764 7.02493164 0.86527764 7.02493164 0.125 8.8125 C-1 11 -1 11 -2.5625 12.9375 C-4.20628942 15.29598047 -4.60798393 17.17748429 -5 20 C-5.99 20 -6.98 20 -8 20 C-8.33 20.99 -8.66 21.98 -9 23 C-9.91790413 20.50250476 -10.12393019 19.33865477 -9.19555664 16.80175781 C-8.77137451 16.02670898 -8.34719238 15.25166016 -7.91015625 14.453125 C-7.45576172 13.60878906 -7.00136719 12.76445313 -6.53320312 11.89453125 C-6.04787109 11.02183594 -5.56253906 10.14914063 -5.0625 9.25 C-4.58103516 8.36183594 -4.09957031 7.47367188 -3.60351562 6.55859375 C-2.41305044 4.36625192 -1.21166274 2.18067616 0 0 Z " fill="#7E98B7" transform="translate(35,52)"/>
<path d="M0 0 C2.91843445 2.626591 4.94517315 5.66976339 7 9 C7 9.66 7 10.32 7 11 C5.35 10.67 3.7 10.34 2 10 C2.33 11.32 2.66 12.64 3 14 C-0.33511388 11.0098979 -2.21521119 8.10501426 -4 4 C-4 3.34 -4 2.68 -4 2 C-2.68 1.34 -1.36 0.68 0 0 Z " fill="#9FC4E0" transform="translate(8,66)"/>
<path d="M0 0 C0.66 0.33 1.32 0.66 2 1 C2.05429959 2.74965358 2.09292823 4.49979787 2.125 6.25 C2.14820313 7.22453125 2.17140625 8.1990625 2.1953125 9.203125 C1.99862781 12.0196498 1.44568916 13.60949036 0 16 C-0.99 16 -1.98 16 -3 16 C-3.0810206 13.89646505 -3.13919907 11.79204048 -3.1875 9.6875 C-3.22230469 8.51574219 -3.25710937 7.34398437 -3.29296875 6.13671875 C-3 3 -3 3 -1.48828125 1.08203125 C-0.99714844 0.72496094 -0.50601562 0.36789063 0 0 Z " fill="#A2CFF0" transform="translate(3,42)"/>
<path d="M0 0 C3.35067523 0.24819817 4.3496964 1.32689012 6.875 3.6875 C9 7 9 7 8.3125 10.375 C7.879375 11.24125 7.44625 12.1075 7 13 C0.05769231 6.24038462 0.05769231 6.24038462 -0.125 2.3125 C-0.08375 1.549375 -0.0425 0.78625 0 0 Z " fill="#485277" transform="translate(79,13)"/>
<path d="M0 0 C3.33727786 1.17255709 5.77437487 2.18868404 8 5 C8 5.66 8 6.32 8 7 C7.34 7 6.68 7 6 7 C5.67 7.99 5.34 8.98 5 10 C2.69 8.02 0.38 6.04 -2 4 C-1.34 2.68 -0.68 1.36 0 0 Z " fill="#515C80" transform="translate(73,8)"/>
<path d="M0 0 C1.65 0.33 3.3 0.66 5 1 C4.70381606 4.55420724 4.19662957 5.80337043 1.625 8.375 C0.75875 8.91125 -0.1075 9.4475 -1 10 C-1.99 9.67 -2.98 9.34 -4 9 C-3.34 8.67 -2.68 8.34 -2 8 C-2.226875 7.4225 -2.45375 6.845 -2.6875 6.25 C-3 4 -3 4 -1.5625 1.75 C-1.046875 1.1725 -0.53125 0.595 0 0 Z " fill="#8FAECE" transform="translate(21,9)"/>
<path d="M0 0 C0.99 1.32 1.98 2.64 3 4 C2.01 4.33 1.02 4.66 0 5 C-1.31035007 8.17242648 -2 10.55881664 -2 14 C-2.99 14.33 -3.98 14.66 -5 15 C-6.375 12.4375 -6.375 12.4375 -7 9 C-5.69863619 6.89779692 -4.21267482 5.27557808 -2.48046875 3.515625 C-0.89750585 2.04924078 -0.89750585 2.04924078 0 0 Z " fill="#485176" transform="translate(85,72)"/>
<path d="M0 0 C0.928125 0.20625 1.85625 0.4125 2.8125 0.625 C-1.76559633 4.80500099 -8.10572059 6.8125 -14.25 6.8125 C-15.7040625 6.7196875 -15.7040625 6.7196875 -17.1875 6.625 C-17.1875 6.295 -17.1875 5.965 -17.1875 5.625 C-16.56101563 5.50382812 -15.93453125 5.38265625 -15.2890625 5.2578125 C-14.47179688 5.09023437 -13.65453125 4.92265625 -12.8125 4.75 C-12.00039063 4.58757812 -11.18828125 4.42515625 -10.3515625 4.2578125 C-8.00076077 3.75841068 -8.00076077 3.75841068 -6.1875 1.625 C-3.1875 -0.375 -3.1875 -0.375 0 0 Z " fill="#58688A" transform="translate(71.1875,91.375)"/>
<path d="M0 0 C1.28506877 4.51692082 0.47268288 7.58195135 -1 12 C-1.99 12 -2.98 12 -4 12 C-4.33 12.99 -4.66 13.98 -5 15 C-5.68359375 13.359375 -5.68359375 13.359375 -6 11 C-4.78515625 8.203125 -4.78515625 8.203125 -3.0625 5.25 C-2.49660156 4.26515625 -1.93070313 3.2803125 -1.34765625 2.265625 C-0.90292969 1.51796875 -0.45820313 0.7703125 0 0 Z " fill="#83A1C1" transform="translate(31,60)"/>
<path d="M0 0 C1.32 0 2.64 0 4 0 C4.33 0.99 4.66 1.98 5 3 C6.485 3.4640625 6.485 3.4640625 8 3.9375 C8.99 4.288125 9.98 4.63875 11 5 C11.875 7.125 11.875 7.125 12 9 C7.50985376 7.50328459 3.52151236 5.16631659 0 2 C0 1.34 0 0.68 0 0 Z " fill="#8CA8CB" transform="translate(18,86)"/>
<path d="M0 0 C1.8125 0.1875 1.8125 0.1875 4 1 C5.75 3.5625 5.75 3.5625 7 6 C6.01 6 5.02 6 4 6 C4.33 6.66 4.66 7.32 5 8 C3.68 8 2.36 8 1 8 C1 7.34 1 6.68 1 6 C0.34 6 -0.32 6 -1 6 C-0.67 4.02 -0.34 2.04 0 0 Z " fill="#52648C" transform="translate(64,78)"/>
<path d="M0 0 C0.33 0.66 0.66 1.32 1 2 C0.67 2.66 0.34 3.32 0 4 C0.66 4.66 1.32 5.32 2 6 C0.02 6.66 -1.96 7.32 -4 8 C-4 7.34 -4 6.68 -4 6 C-4.66 5.67 -5.32 5.34 -6 5 C-6 4.34 -6 3.68 -6 3 C-4.02 2.01 -2.04 1.02 0 0 Z " fill="#88A6C2" transform="translate(29,5)"/>
<path d="M0 0 C1.98 0.495 1.98 0.495 4 1 C4 2.65 4 4.3 4 6 C4.66 6.33 5.32 6.66 6 7 C5.67 7.99 5.34 8.98 5 10 C3.96704564 8.90716423 2.94892165 7.80029421 1.9375 6.6875 C1.36902344 6.07261719 0.80054688 5.45773438 0.21484375 4.82421875 C-0.38650391 3.92123047 -0.38650391 3.92123047 -1 3 C-0.67 2.01 -0.34 1.02 0 0 Z " fill="#9DBEDC" transform="translate(12,78)"/>
<path d="M0 0 C0.66 0 1.32 0 2 0 C0.5140084 4.59306496 -1.85014682 7.43569245 -5 11 C-5.33 10.01 -5.66 9.02 -6 8 C-5.67 7.34 -5.34 6.68 -5 6 C-4.01 6 -3.02 6 -2 6 C-1.855625 5.195625 -1.71125 4.39125 -1.5625 3.5625 C-1 1 -1 1 0 0 Z " fill="#4B5173" transform="translate(90,73)"/>
<path d="M0 0 C0.66 0 1.32 0 2 0 C2.66 1.32 3.32 2.64 4 4 C2.625 6 2.625 6 1 8 C0.34 8 -0.32 8 -1 8 C-2.2077558 4.37673261 -1.54311128 3.35853631 0 0 Z " fill="#687FA5" transform="translate(50,77)"/>
<path d="M0 0 C0.66 0.33 1.32 0.66 2 1 C0.52307692 6.66153846 0.52307692 6.66153846 -2.125 8.375 C-2.74375 8.58125 -3.3625 8.7875 -4 9 C-4 5.00095031 -2.27413033 3.19799578 0 0 Z " fill="#91AFCA" transform="translate(24,72)"/>
<path d="M0 0 C0.66 0 1.32 0 2 0 C0.66511872 3.59391114 -0.96022723 6.75490696 -3 10 C-4 7 -4 7 -3.22265625 5.17578125 C-2.1484375 3.45052083 -1.07421875 1.72526042 0 0 Z " fill="#E9F6FB" transform="translate(28,62)"/>
<path d="M0 0 C0.66 0.99 1.32 1.98 2 3 C1.125 6.6875 1.125 6.6875 0 10 C-3 6.25 -3 6.25 -3 4 C-2.34 3.67 -1.68 3.34 -1 3 C-0.67 2.01 -0.34 1.02 0 0 Z " fill="#494F74" transform="translate(90,23)"/>
<path d="M0 0 C0.99 0.33 1.98 0.66 3 1 C3 1.66 3 2.32 3 3 C2.01 3 1.02 3 0 3 C-0.33 4.65 -0.66 6.3 -1 8 C-1.66 7.67 -2.32 7.34 -3 7 C-1.125 1.125 -1.125 1.125 0 0 Z " fill="#3C4676" transform="translate(85,76)"/>
<path d="M0 0 C2.64 0.33 5.28 0.66 8 1 C8 1.66 8 2.32 8 3 C5.69 3 3.38 3 1 3 C0.67 2.01 0.34 1.02 0 0 Z " fill="#546A94" transform="translate(56,3)"/>
</svg>
